<?xml version="1.0" encoding="iso-8859-1"?>
<!-- Generator: Adobe Illustrator 19.0.0, SVG Export Plug-In . SVG Version: 6.00 Build 0)  -->
<svg version="1.1" id="Capa_1" xmlns="http://www.w3.org/2000/svg" xmlns:xlink="http://www.w3.org/1999/xlink" x="0px" y="0px"
	 viewBox="0 0 512 512" style="enable-background:new 0 0 512 512;" xml:space="preserve">
<g>
	<path style="fill:#EBAF4B;" d="M197.753,383.917l-15.189,26.823c-4.959,8.756,3.361,19.062,12.966,16.061l29.886-9.338
		L197.753,383.917z"/>
	<path style="fill:#EBAF4B;" d="M323.722,458.422l6.731,25.12c2.605,9.719,15.763,11.233,20.506,2.359l12.616-23.602
		L323.722,458.422z"/>
	<path style="fill:#EBAF4B;" d="M481.533,409.839l-36.129,14.916l19.232,17.787c7.387,6.833,19.325,1.095,18.604-8.942
		L481.533,409.839z"/>
	<path style="fill:#EBAF4B;" d="M195.14,247.585l-25.799,12.381c-9.072,4.353-8.132,17.565,1.466,20.589l27.698,8.728
		L195.14,247.585z"/>
</g>
<path style="fill:#D4F582;" d="M486.197,314.061c-43.184-31.877-89.423-12.946-104.7,22.485c-1.626,3.771-5.793,5.693-9.7,4.426
	c-6.178-2.004-12.758-3.106-19.604-3.106c-9.099,0-17.734,1.927-25.563,5.361c-4.283,1.879-9.164-0.055-10.851-4.417
	c-2.838-7.335-6.986-14.012-12.16-19.754c-2.7-2.996-2.657-7.523,0.042-10.52c10.222-11.348,16.468-26.339,16.468-42.815
	c0-18.166-7.58-34.534-19.726-46.192c-3.408-3.271-3.417-8.548-0.008-11.818c21.912-21.024,28.972-57.375,3.486-91.964
	c-0.537-0.728-1.218-1.413-1.944-1.952c-21.743-16.158-44.249-19.353-63.214-14.054c-4.164,1.163-8.422-1.182-9.7-5.312
	c-12.199-39.417-61.28-62.604-107.019-28.882c-0.727,0.536-1.409,1.216-1.947,1.942c-39.01,52.612-2.33,110.055,47.766,110.055
	c5.946,0,11.702-0.811,17.166-2.327c4.203-1.166,8.522,1.116,9.812,5.283c3.253,10.505,9.127,19.846,16.869,27.267
	c3.386,3.246,3.332,8.498-0.054,11.745c-12.156,11.659-19.744,28.034-19.744,46.209c0,16.475,6.245,31.464,16.465,42.812
	c2.72,3.02,2.709,7.56-0.009,10.581c-19.183,21.311-24.354,55.454-0.479,88.169c0.527,0.723,1.197,1.402,1.912,1.941
	c25.407,19.14,51.407,20.438,71.883,11.424c4.271-1.88,9.102,0.141,10.786,4.492c9.28,23.972,32.516,40.984,59.765,40.984
	c26.398,0,49.039-15.961,58.87-38.752c1.628-3.774,5.794-5.702,9.704-4.434c6.177,2.003,12.757,3.105,19.603,3.105
	c50.086,0,86.761-57.418,47.792-110.021C487.62,315.29,486.931,314.602,486.197,314.061z"/>
<path style="fill:#BEE86E;" d="M456.403,393.979c-2.527,0-5.017-0.153-7.464-0.447c-9.031-1.085-17.731,2.51-23.608,9.453
	c-4.713,5.568-10.369,10.316-16.692,14.052c-9.5,5.661-20.524,9.006-32.398,9.006c-29.881,0-55.129-20.402-62.108-48.096
	c-1.975-7.834-17.33-15.668-22.729,3.412c-2.102,7.427-9.998,12.744-17.528,11.044c-22.704-5.127-40.843-22.298-47.349-44.446
	c-2.654-9.036,4.169-18.106,13.586-18.106h15.886c21.739,0,40.873-10.864,52.453-27.414l-0.001-0.001
	c-11.147,3.739-23.584,4.649-36.626,1.267c-22.472-5.828-40.36-23.972-45.964-46.501c-2.327-9.353-2.445-18.385-0.898-26.839
	c1.06-5.793,6.777-9.257,12.406-7.526c5.892,1.812,12.14,2.803,18.629,2.803c17.777,0,33.805-7.274,45.392-18.974
	c0.183-0.183,0.355-0.376,0.536-0.561c3.73-3.858,7.002-8.163,9.683-12.857c-9.323,5.287-20.077,8.344-31.562,8.344
	c-28.982,0-53.42-19.243-61.351-45.641c-1.57-5.225-6.609-8.346-11.983-7.407c-8.891,1.554-16.847,3.198-30.375-0.059
	c-25.227-6.073-40.802-31.738-40.802-31.738l-30.882-13.574c-6.165,39.943,24.397,74.371,63.166,74.371
	c5.956,0,11.721-0.814,17.192-2.334c4.146-1.152,8.508,1.152,9.779,5.264c3.251,10.516,9.128,19.866,16.877,27.293
	c3.388,3.247,3.333,8.5-0.054,11.748c-12.157,11.657-19.745,28.032-19.745,46.207c0,16.476,6.246,31.466,16.467,42.812
	c2.719,3.019,2.709,7.559-0.009,10.578c-19.166,21.289-24.346,55.388-0.551,88.075c0.683,0.693,1.396,1.416,2.078,2.109
	c25.378,19.071,51.337,20.354,71.786,11.352c4.271-1.88,9.102,0.141,10.786,4.492c0.016,0.04,0.032,0.06,0.047,0.1
	c9.317,23.912,32.51,40.885,59.718,40.885c26.321,0,48.844-15.892,58.699-38.583c1.707-3.93,6.037-5.924,10.111-4.597
	c6.104,1.988,12.595,3.1,19.368,3.1c31.506,0,57.651-22.74,63.053-52.69C491.71,386.009,475.008,393.979,456.403,393.979z"/>
<ellipse style="fill:#FFDC64;" cx="68.623" cy="121.428" rx="61.12" ry="64.13"/>
<path style="fill:#FFC850;" d="M95.364,157.503c-33.757,0-61.123-28.712-61.123-64.129c0-10.472,2.442-20.329,6.684-29.059
	C21.104,74.918,7.5,96.485,7.5,121.43c0,35.417,27.366,64.129,61.123,64.129c23.776,0,44.332-14.273,54.439-35.07
	C114.74,154.941,105.346,157.503,95.364,157.503z"/>
<circle style="fill:#4B3F4E;" cx="63.613" cy="105.398" r="16.03"/>
<path d="M63.613,81.866c-12.976,0-23.532,10.557-23.532,23.532c0,12.976,10.557,23.533,23.532,23.533
	c12.976,0,23.532-10.557,23.532-23.533C87.145,92.422,76.589,81.866,63.613,81.866z M63.613,113.931
	c-4.705,0-8.532-3.828-8.532-8.533s3.828-8.532,8.532-8.532c4.705,0,8.532,3.828,8.532,8.532
	C72.145,110.103,68.318,113.931,63.613,113.931z"/>
<path d="M489.581,413.89C503.372,400.826,512,382.364,512,361.914c0-39.496-32.133-71.629-71.629-71.629
	c-29.098,0-55.2,17.832-66.146,44.271c-7.721-2.783-15.774-4.189-24.035-4.189c-8.817,0-17.589,1.646-25.785,4.805
	c-3.418-8.553-8.416-16.3-14.785-22.917c12.169-13.174,19.012-30.452,19.012-48.537c0-18.688-7.195-36.34-19.996-49.622
	c13.866-13.436,21.666-31.68,21.666-51.248c0-39.496-32.133-71.629-71.629-71.629c-6.754,0-13.371,0.928-19.766,2.766
	c-9.104-29.742-36.615-50.528-68.412-50.528c-20.091,0-39.254,8.566-52.745,23.261c-9.015-7.594-19.772-12.843-31.208-15.309
	c-1.278-8.592-5.233-25.468-17.304-39.149c-2.74-3.105-7.48-3.401-10.586-0.661c-3.106,2.74-3.402,7.48-0.662,10.586
	c7.985,9.049,11.496,20.266,13.023,27.634c-2.967,0.025-5.887,0.24-8.758,0.618C50.23,33.138,34.636,26.875,33.948,26.605
	c-3.858-1.509-8.208,0.393-9.718,4.251c-1.509,3.857,0.394,8.208,4.251,9.717c0.109,0.043,9.359,3.886,17.907,13.835
	C19.312,64.638,0,90.816,0,121.431c0,39.496,32.133,71.629,71.629,71.629c20.089,0,39.253-8.567,52.746-23.261
	c12.857,10.832,29.252,16.915,46.12,16.915c6.756,0,13.376-0.929,19.773-2.768c3.286,10.68,9.035,20.451,16.778,28.517
	c-8.517,8.251-14.735,18.322-18.274,29.395l-24.428,11.723c-6.927,3.324-11.05,10.424-10.504,18.087
	c0.545,7.664,5.633,14.107,12.961,16.417l26.463,8.339c3.167,6.166,7.233,11.884,12.123,16.957
	c-12.167,13.172-19.01,30.449-19.01,48.534c0,7.382,1.124,14.506,3.207,21.212l-13.545,23.919
	c-3.786,6.686-3.114,14.868,1.712,20.847c3.608,4.469,8.908,6.929,14.419,6.928c1.861,0,3.746-0.28,5.598-0.858l27.23-8.508
	c9.886,5.156,21.107,8.09,33.008,8.09c8.821,0,17.596-1.647,25.795-4.809c6.357,15.818,18.073,28.589,32.653,36.408l6.256,23.347
	c1.989,7.421,8.206,12.783,15.838,13.662c0.728,0.083,1.452,0.124,2.17,0.124c6.816,0,13.081-3.703,16.357-9.833l11.333-21.201
	c21.396-5.681,39.336-21.129,47.931-41.888c7.721,2.783,15.774,4.189,24.035,4.189c0.776,0,1.544-0.034,2.314-0.059l17.191,15.9
	c3.529,3.265,8.027,4.963,12.597,4.963c2.734,0,5.495-0.608,8.087-1.854c6.924-3.328,11.043-10.43,10.493-18.093L489.581,413.89z
	 M171.308,273.777c-2.106-0.663-2.455-2.441-2.507-3.176c-0.052-0.733,0.041-2.543,2.032-3.498l14.631-7.022
	c-0.06,1.206-0.091,2.418-0.091,3.635c0,5.098,0.554,10.116,1.594,14.995L171.308,273.777z M193.292,419.644
	c-2.107,0.655-3.409-0.603-3.872-1.175c-0.462-0.572-1.419-2.11-0.331-4.032l8.23-14.535c3.405,5.419,7.507,10.355,12.193,14.673
	L193.292,419.644z M340.261,487.249c-0.731-0.084-2.492-0.51-3.063-2.643L333.74,471.7c5.287,1.252,10.776,1.917,16.385,1.922
	l-6.28,11.748C342.803,487.319,340.988,487.337,340.261,487.249z M350.189,458.624c-24.016,0-45.277-15.217-53.255-37.545
	c5.678-5.021,15.614-15.399,22.624-31.492c1.654-3.797-0.083-8.217-3.881-9.871c-3.796-1.654-8.217,0.083-9.871,3.881
	c-7.586,17.414-19.336,26.828-21.464,28.433c-8.08,4.255-17.174,6.513-26.339,6.513c-31.225,0-56.629-25.403-56.629-56.629
	c0-14.968,5.956-29.229,16.453-39.813c6.734,2.599,19.858,6.563,37.255,6.563c1.705,0,3.454-0.038,5.24-0.119
	c4.138-0.188,7.34-3.695,7.151-7.833c-0.188-4.139-3.697-7.323-7.833-7.151c-21.179,0.968-35.937-5.132-39.198-6.623
	c-12.758-10.801-20.07-26.499-20.07-43.221c0-16.434,6.986-31.681,19.282-42.458c6.465,2.354,19.42,6.267,35.667,6.979
	c0.112,0.005,0.223,0.007,0.334,0.007c3.991,0,7.311-3.146,7.487-7.172c0.181-4.138-3.027-7.64-7.165-7.821
	c-17.181-0.753-30.295-5.666-33.684-7.051c-9.099-7.646-15.538-17.939-18.443-29.397c9.718-8.847,17.747-18.644,23.873-29.193
	c2.08-3.582,0.863-8.172-2.719-10.252c-3.582-2.079-8.172-0.862-10.252,2.719c-5.795,9.978-13.592,19.235-23.153,27.548
	c-6.715,2.702-13.806,4.088-21.106,4.088c-14.631,0-28.298-5.5-38.864-15.544c1.675-11.905,2.568-23.114,2.642-33.354
	c0.03-4.142-3.304-7.524-7.446-7.554c-4.125,0.007-7.524,3.304-7.553,7.446c-0.072,10.067-1.002,21.198-2.745,33.093
	c-10.708,13.958-27.351,22.259-44.899,22.259C40.404,178.06,15,152.656,15,121.431c0-31.226,25.404-56.629,56.629-56.629
	c15.58,0,30.066,6.236,40.88,17.557c0.547,0.971,1.974,3.784,3.368,8.887c0.912,3.333,3.933,5.524,7.23,5.524
	c0.655,0,1.32-0.086,1.982-0.268c3.996-1.092,6.349-5.217,5.257-9.212c-1.01-3.693-2.073-6.563-3.016-8.731
	c10.723-12.652,26.537-20.102,43.164-20.102c27.268,0,50.538,19.345,55.576,46.083c-0.027,1.13-0.173,3.992-0.918,8.064
	c-0.745,4.075,1.954,7.982,6.028,8.727c0.456,0.083,0.91,0.124,1.358,0.124c3.552,0,6.707-2.534,7.369-6.152
	c0.437-2.388,0.709-4.461,0.882-6.181c5.746-1.916,11.739-2.902,17.881-2.902c31.225,0,56.629,25.404,56.629,56.629
	c0,17.477-7.902,33.612-21.691,44.454c-2.359,0.911-4.77,1.745-7.199,2.449c-3.979,1.153-6.269,5.313-5.116,9.291
	c0.951,3.281,3.947,5.415,7.2,5.415c0.691,0,1.394-0.096,2.091-0.298c1.739-0.504,3.473-1.061,5.19-1.658
	c11.388,10.696,17.856,25.489,17.856,41.219c0,16.104-6.89,31.392-18.918,42.158c-1.998,0.785-4.009,1.53-6.001,2.194
	c-3.93,1.309-6.055,5.556-4.747,9.485c1.047,3.145,3.974,5.133,7.115,5.133c0.785,0,1.584-0.124,2.37-0.386
	c1.228-0.409,2.464-0.847,3.698-1.299c7.298,6.984,12.54,15.747,15.3,25.598c0.102,2.682,0.108,5.356-0.014,7.955
	c-0.194,4.138,3.003,7.648,7.141,7.843c0.119,0.005,0.238,0.008,0.356,0.008c3.981,0,7.298-3.131,7.486-7.149
	c0.079-1.691,0.117-3.407,0.115-5.134c7.117-3.107,14.859-4.756,22.657-4.756c8.744,0,17.204,2.002,25.144,5.951
	c0.037,0.019,0.206,0.099,0.254,0.121c0.048,0.021,4.95,2.309,10.794,7.609c1.437,1.303,3.239,1.945,5.037,1.945
	c2.042,0,4.078-0.829,5.558-2.461c2.783-3.068,2.552-7.812-0.516-10.594c-3.23-2.93-6.254-5.152-8.719-6.766
	c8.432-21.386,29.309-35.887,52.63-35.887c31.225,0,56.629,25.403,56.629,56.629s-25.404,56.629-56.629,56.629
	c-7.005,0-13.823-1.307-20.342-3.849c1.226-12.186,0.261-23.612-2.892-34.034c-1.2-3.966-5.388-6.206-9.351-5.007
	c-3.965,1.199-6.206,5.386-5.007,9.351c2.951,9.753,3.54,20.748,1.763,32.684C397.589,441.81,375.304,458.624,350.189,458.624z
	 M474.062,438.973c-0.663,0.318-2.381,0.898-4.001-0.601l-8.639-7.991c4.868-1.5,9.509-3.514,13.875-5.964l0.794,11.056
	C476.25,437.676,474.725,438.654,474.062,438.973z"/>
<g>
</g>
<g>
</g>
<g>
</g>
<g>
</g>
<g>
</g>
<g>
</g>
<g>
</g>
<g>
</g>
<g>
</g>
<g>
</g>
<g>
</g>
<g>
</g>
<g>
</g>
<g>
</g>
<g>
</g>
</svg>
