{
    "asset" : {
        "generator" : "Khronos glTF Blender I/O v1.0.5",
        "version" : "2.0"
    },
    "scene" : 0,
    "scenes" : [
        {
            "name" : "Scene",
            "nodes" : [
                0,
                1,
                2,
                3
            ]
        }
    ],
    "nodes" : [
        {
            "mesh" : 0,
            "name" : "worm_body",
            "scale" : [
                -2.267608404159546,
                0.5659325122833252,
                1
            ],
            "translation" : [
                -1.1844252347946167,
                -0.8655324578285217,
                0
            ]
        },
        {
            "mesh" : 1,
            "name" : "worm_eyes",
            "scale" : [
                -2.267608404159546,
                0.5659325122833252,
                1
            ],
            "translation" : [
                -1.290132999420166,
                -0.8655325174331665,
                0
            ]
        },
        {
            "mesh" : 2,
            "name" : "worm_head",
            "scale" : [
                1,
                1.3414536714553833,
                1
            ],
            "translation" : [
                0,
                1.2243627309799194,
                0
            ]
        },
        {
            "mesh" : 3,
            "name" : "worm_hair",
            "scale" : [
                0.7960954308509827,
                0.5762824416160583,
                0.09911008924245834
            ],
            "translation" : [
                -0.02966591715812683,
                1.8443481922149658,
                1.2153606414794922
            ]
        }
    ],
    "animations" : [
        {
            "channels" : [
                {
                    "sampler" : 0,
                    "target" : {
                        "node" : 0,
                        "path" : "translation"
                    }
                }
            ],
            "name" : "Cube.001Action",
            "samplers" : [
                {
                    "input" : 16,
                    "interpolation" : "LINEAR",
                    "output" : 17
                }
            ]
        },
        {
            "channels" : [
                {
                    "sampler" : 0,
                    "target" : {
                        "node" : 1,
                        "path" : "translation"
                    }
                }
            ],
            "name" : "Cube.002Action",
            "samplers" : [
                {
                    "input" : 16,
                    "interpolation" : "LINEAR",
                    "output" : 18
                }
            ]
        },
        {
            "channels" : [
                {
                    "sampler" : 0,
                    "target" : {
                        "node" : 2,
                        "path" : "translation"
                    }
                }
            ],
            "name" : "CubeAction.002",
            "samplers" : [
                {
                    "input" : 16,
                    "interpolation" : "LINEAR",
                    "output" : 19
                }
            ]
        },
        {
            "channels" : [
                {
                    "sampler" : 0,
                    "target" : {
                        "node" : 3,
                        "path" : "translation"
                    }
                },
                {
                    "sampler" : 1,
                    "target" : {
                        "node" : 3,
                        "path" : "rotation"
                    }
                },
                {
                    "sampler" : 2,
                    "target" : {
                        "node" : 3,
                        "path" : "scale"
                    }
                }
            ],
            "name" : "CubeAction",
            "samplers" : [
                {
                    "input" : 20,
                    "interpolation" : "STEP",
                    "output" : 21
                },
                {
                    "input" : 20,
                    "interpolation" : "STEP",
                    "output" : 22
                },
                {
                    "input" : 20,
                    "interpolation" : "STEP",
                    "output" : 23
                }
            ]
        }
    ],
    "materials" : [
        {
            "doubleSided" : true,
            "name" : "mat_worm_body",
            "pbrMetallicRoughness" : {
                "baseColorFactor" : [
                    0.6631237864494324,
                    0.8000000715255737,
                    0.48850300908088684,
                    1
                ],
                "metallicFactor" : 0,
                "roughnessFactor" : 0.4000000059604645
            }
        },
        {
            "doubleSided" : true,
            "name" : "mat_worm_eyes",
            "pbrMetallicRoughness" : {
                "baseColorFactor" : [
                    0.8000000715255737,
                    0.02005593478679657,
                    0.4391130208969116,
                    1
                ],
                "metallicFactor" : 0,
                "roughnessFactor" : 0.5
            }
        },
        {
            "doubleSided" : true,
            "name" : "mat_worm_hair",
            "pbrMetallicRoughness" : {
                "baseColorFactor" : [
                    0.08536043763160706,
                    0.13072434067726135,
                    0.8000000715255737,
                    1
                ],
                "metallicFactor" : 0,
                "roughnessFactor" : 0.5
            }
        }
    ],
    "meshes" : [
        {
            "name" : "Cube.001",
            "primitives" : [
                {
                    "attributes" : {
                        "POSITION" : 0,
                        "NORMAL" : 1,
                        "TEXCOORD_0" : 2
                    },
                    "indices" : 3,
                    "material" : 0
                }
            ]
        },
        {
            "name" : "Cube.002",
            "primitives" : [
                {
                    "attributes" : {
                        "POSITION" : 4,
                        "NORMAL" : 5,
                        "TEXCOORD_0" : 6
                    },
                    "indices" : 7,
                    "material" : 1
                }
            ]
        },
        {
            "name" : "Cube",
            "primitives" : [
                {
                    "attributes" : {
                        "POSITION" : 8,
                        "NORMAL" : 9,
                        "TEXCOORD_0" : 10
                    },
                    "indices" : 11,
                    "material" : 0
                }
            ]
        },
        {
            "name" : "Cube.003",
            "primitives" : [
                {
                    "attributes" : {
                        "POSITION" : 12,
                        "NORMAL" : 13,
                        "TEXCOORD_0" : 14
                    },
                    "indices" : 15,
                    "material" : 2
                }
            ]
        }
    ],
    "accessors" : [
        {
            "bufferView" : 0,
            "componentType" : 5126,
            "count" : 110,
            "max" : [
                1,
                1.1894469261169434,
                1
            ],
            "min" : [
                -1,
                -1,
                -1
            ],
            "type" : "VEC3"
        },
        {
            "bufferView" : 1,
            "componentType" : 5126,
            "count" : 110,
            "type" : "VEC3"
        },
        {
            "bufferView" : 2,
            "componentType" : 5126,
            "count" : 110,
            "type" : "VEC2"
        },
        {
            "bufferView" : 3,
            "componentType" : 5123,
            "count" : 168,
            "type" : "SCALAR"
        },
        {
            "bufferView" : 4,
            "componentType" : 5126,
            "count" : 8,
            "max" : [
                -0.22408470511436462,
                5.438030242919922,
                -1.0546977519989014
            ],
            "min" : [
                -0.9631712436676025,
                2.7908663749694824,
                -1.0546977519989014
            ],
            "type" : "VEC3"
        },
        {
            "bufferView" : 5,
            "componentType" : 5126,
            "count" : 8,
            "type" : "VEC3"
        },
        {
            "bufferView" : 6,
            "componentType" : 5126,
            "count" : 8,
            "type" : "VEC2"
        },
        {
            "bufferView" : 7,
            "componentType" : 5123,
            "count" : 12,
            "type" : "SCALAR"
        },
        {
            "bufferView" : 8,
            "componentType" : 5126,
            "count" : 40,
            "max" : [
                1,
                1.2398110628128052,
                1
            ],
            "min" : [
                -1,
                -1,
                -1
            ],
            "type" : "VEC3"
        },
        {
            "bufferView" : 9,
            "componentType" : 5126,
            "count" : 40,
            "type" : "VEC3"
        },
        {
            "bufferView" : 10,
            "componentType" : 5126,
            "count" : 40,
            "type" : "VEC2"
        },
        {
            "bufferView" : 11,
            "componentType" : 5123,
            "count" : 60,
            "type" : "SCALAR"
        },
        {
            "bufferView" : 12,
            "componentType" : 5126,
            "count" : 24,
            "max" : [
                1,
                1,
                1
            ],
            "min" : [
                -1,
                -1,
                -1
            ],
            "type" : "VEC3"
        },
        {
            "bufferView" : 13,
            "componentType" : 5126,
            "count" : 24,
            "type" : "VEC3"
        },
        {
            "bufferView" : 14,
            "componentType" : 5126,
            "count" : 24,
            "type" : "VEC2"
        },
        {
            "bufferView" : 15,
            "componentType" : 5123,
            "count" : 36,
            "type" : "SCALAR"
        },
        {
            "bufferView" : 16,
            "componentType" : 5126,
            "count" : 101,
            "max" : [
                4.166666666666667
            ],
            "min" : [
                0
            ],
            "type" : "SCALAR"
        },
        {
            "bufferView" : 17,
            "componentType" : 5126,
            "count" : 101,
            "type" : "VEC3"
        },
        {
            "bufferView" : 18,
            "componentType" : 5126,
            "count" : 101,
            "type" : "VEC3"
        },
        {
            "bufferView" : 19,
            "componentType" : 5126,
            "count" : 101,
            "type" : "VEC3"
        },
        {
            "bufferView" : 20,
            "componentType" : 5126,
            "count" : 1,
            "max" : [
                5
            ],
            "min" : [
                5
            ],
            "type" : "SCALAR"
        },
        {
            "bufferView" : 21,
            "componentType" : 5126,
            "count" : 1,
            "type" : "VEC3"
        },
        {
            "bufferView" : 22,
            "componentType" : 5126,
            "count" : 1,
            "type" : "VEC4"
        },
        {
            "bufferView" : 23,
            "componentType" : 5126,
            "count" : 1,
            "type" : "VEC3"
        }
    ],
    "bufferViews" : [
        {
            "buffer" : 0,
            "byteLength" : 1320,
            "byteOffset" : 0
        },
        {
            "buffer" : 0,
            "byteLength" : 1320,
            "byteOffset" : 1320
        },
        {
            "buffer" : 0,
            "byteLength" : 880,
            "byteOffset" : 2640
        },
        {
            "buffer" : 0,
            "byteLength" : 336,
            "byteOffset" : 3520
        },
        {
            "buffer" : 0,
            "byteLength" : 96,
            "byteOffset" : 3856
        },
        {
            "buffer" : 0,
            "byteLength" : 96,
            "byteOffset" : 3952
        },
        {
            "buffer" : 0,
            "byteLength" : 64,
            "byteOffset" : 4048
        },
        {
            "buffer" : 0,
            "byteLength" : 24,
            "byteOffset" : 4112
        },
        {
            "buffer" : 0,
            "byteLength" : 480,
            "byteOffset" : 4136
        },
        {
            "buffer" : 0,
            "byteLength" : 480,
            "byteOffset" : 4616
        },
        {
            "buffer" : 0,
            "byteLength" : 320,
            "byteOffset" : 5096
        },
        {
            "buffer" : 0,
            "byteLength" : 120,
            "byteOffset" : 5416
        },
        {
            "buffer" : 0,
            "byteLength" : 288,
            "byteOffset" : 5536
        },
        {
            "buffer" : 0,
            "byteLength" : 288,
            "byteOffset" : 5824
        },
        {
            "buffer" : 0,
            "byteLength" : 192,
            "byteOffset" : 6112
        },
        {
            "buffer" : 0,
            "byteLength" : 72,
            "byteOffset" : 6304
        },
        {
            "buffer" : 0,
            "byteLength" : 404,
            "byteOffset" : 6376
        },
        {
            "buffer" : 0,
            "byteLength" : 1212,
            "byteOffset" : 6780
        },
        {
            "buffer" : 0,
            "byteLength" : 1212,
            "byteOffset" : 7992
        },
        {
            "buffer" : 0,
            "byteLength" : 1212,
            "byteOffset" : 9204
        },
        {
            "buffer" : 0,
            "byteLength" : 4,
            "byteOffset" : 10416
        },
        {
            "buffer" : 0,
            "byteLength" : 12,
            "byteOffset" : 10420
        },
        {
            "buffer" : 0,
            "byteLength" : 16,
            "byteOffset" : 10432
        },
        {
            "buffer" : 0,
            "byteLength" : 12,
            "byteOffset" : 10448
        }
    ],
    "buffers" : [
        {
            "byteLength" : 10460,
            "uri" : "data:application/octet-stream;base64,"
        }
    ]
}
