{
    "asset" : {
        "generator" : "Khronos glTF Blender I/O v1.0.5",
        "version" : "2.0"
    },
    "scene" : 0,
    "scenes" : [
        {
            "name" : "Scene",
            "nodes" : [
                0,
                1,
                2,
                3,
                4
            ]
        }
    ],
    "nodes" : [
        {
            "mesh" : 0,
            "name" : "Cube",
            "scale" : [
                1,
                1.3414536714553833,
                1
            ],
            "translation" : [
                0,
                1.2243627309799194,
                0
            ]
        },
        {
            "name" : "Light",
            "rotation" : [
                0.16907575726509094,
                0.7558803558349609,
                -0.27217137813568115,
                0.570947527885437
            ],
            "translation" : [
                4.076245307922363,
                5.903861999511719,
                -1.0054539442062378
            ]
        },
        {
            "name" : "Camera",
            "rotation" : [
                0.0013006310909986496,
                0.850077211856842,
                -0.5266522765159607,
                0.0020993677899241447
            ],
            "translation" : [
                -0.0634162425994873,
                4.958309173583984,
                -9.562674522399902
            ]
        },
        {
            "mesh" : 1,
            "name" : "Cube.001",
            "scale" : [
                -2.267608404159546,
                0.5659325122833252,
                1
            ],
            "translation" : [
                -1.1844252347946167,
                -0.8655324578285217,
                0
            ]
        },
        {
            "mesh" : 2,
            "name" : "Cube.002",
            "scale" : [
                -2.267608404159546,
                0.5659325122833252,
                1
            ],
            "translation" : [
                -1.290132999420166,
                -0.8655325174331665,
                0
            ]
        }
    ],
    "animations" : [
        {
            "channels" : [
                {
                    "sampler" : 0,
                    "target" : {
                        "node" : 0,
                        "path" : "translation"
                    }
                },
                {
                    "sampler" : 1,
                    "target" : {
                        "node" : 0,
                        "path" : "rotation"
                    }
                },
                {
                    "sampler" : 2,
                    "target" : {
                        "node" : 0,
                        "path" : "scale"
                    }
                }
            ],
            "name" : "CubeAction.002",
            "samplers" : [
                {
                    "input" : 12,
                    "interpolation" : "LINEAR",
                    "output" : 13
                },
                {
                    "input" : 12,
                    "interpolation" : "LINEAR",
                    "output" : 14
                },
                {
                    "input" : 15,
                    "interpolation" : "STEP",
                    "output" : 16
                }
            ]
        },
        {
            "channels" : [
                {
                    "sampler" : 0,
                    "target" : {
                        "node" : 3,
                        "path" : "scale"
                    }
                },
                {
                    "sampler" : 1,
                    "target" : {
                        "node" : 3,
                        "path" : "translation"
                    }
                }
            ],
            "name" : "Cube.001Action",
            "samplers" : [
                {
                    "input" : 12,
                    "interpolation" : "LINEAR",
                    "output" : 17
                },
                {
                    "input" : 12,
                    "interpolation" : "LINEAR",
                    "output" : 18
                }
            ]
        },
        {
            "channels" : [
                {
                    "sampler" : 0,
                    "target" : {
                        "node" : 4,
                        "path" : "rotation"
                    }
                },
                {
                    "sampler" : 1,
                    "target" : {
                        "node" : 4,
                        "path" : "translation"
                    }
                }
            ],
            "name" : "Cube.002Action",
            "samplers" : [
                {
                    "input" : 12,
                    "interpolation" : "LINEAR",
                    "output" : 19
                },
                {
                    "input" : 12,
                    "interpolation" : "LINEAR",
                    "output" : 20
                }
            ]
        }
    ],
    "materials" : [
        {
            "doubleSided" : true,
            "name" : "Material",
            "pbrMetallicRoughness" : {
                "baseColorFactor" : [
                    0.800000011920929,
                    0.800000011920929,
                    0.800000011920929,
                    1
                ],
                "metallicFactor" : 0,
                "roughnessFactor" : 0.4000000059604645
            }
        },
        {
            "doubleSided" : true,
            "name" : "Material.001",
            "pbrMetallicRoughness" : {
                "baseColorFactor" : [
                    0.8000000715255737,
                    0.02005593478679657,
                    0.4391130208969116,
                    1
                ],
                "metallicFactor" : 0,
                "roughnessFactor" : 0.5
            }
        }
    ],
    "meshes" : [
        {
            "name" : "Cube",
            "primitives" : [
                {
                    "attributes" : {
                        "POSITION" : 0,
                        "NORMAL" : 1,
                        "TEXCOORD_0" : 2
                    },
                    "indices" : 3,
                    "material" : 0
                }
            ]
        },
        {
            "name" : "Cube.001",
            "primitives" : [
                {
                    "attributes" : {
                        "POSITION" : 4,
                        "NORMAL" : 5,
                        "TEXCOORD_0" : 6
                    },
                    "indices" : 7
                }
            ]
        },
        {
            "name" : "Cube.002",
            "primitives" : [
                {
                    "attributes" : {
                        "POSITION" : 8,
                        "NORMAL" : 9,
                        "TEXCOORD_0" : 10
                    },
                    "indices" : 11,
                    "material" : 1
                }
            ]
        }
    ],
    "accessors" : [
        {
            "bufferView" : 0,
            "componentType" : 5126,
            "count" : 40,
            "max" : [
                1,
                1.2398110628128052,
                1
            ],
            "min" : [
                -1,
                -1,
                -1
            ],
            "type" : "VEC3"
        },
        {
            "bufferView" : 1,
            "componentType" : 5126,
            "count" : 40,
            "type" : "VEC3"
        },
        {
            "bufferView" : 2,
            "componentType" : 5126,
            "count" : 40,
            "type" : "VEC2"
        },
        {
            "bufferView" : 3,
            "componentType" : 5123,
            "count" : 60,
            "type" : "SCALAR"
        },
        {
            "bufferView" : 4,
            "componentType" : 5126,
            "count" : 110,
            "max" : [
                1,
                1.1894469261169434,
                1
            ],
            "min" : [
                -1,
                -1,
                -1
            ],
            "type" : "VEC3"
        },
        {
            "bufferView" : 5,
            "componentType" : 5126,
            "count" : 110,
            "type" : "VEC3"
        },
        {
            "bufferView" : 6,
            "componentType" : 5126,
            "count" : 110,
            "type" : "VEC2"
        },
        {
            "bufferView" : 7,
            "componentType" : 5123,
            "count" : 168,
            "type" : "SCALAR"
        },
        {
            "bufferView" : 8,
            "componentType" : 5126,
            "count" : 8,
            "max" : [
                -0.22408470511436462,
                5.438030242919922,
                -1.0546977519989014
            ],
            "min" : [
                -0.9631712436676025,
                2.7908663749694824,
                -1.0546977519989014
            ],
            "type" : "VEC3"
        },
        {
            "bufferView" : 9,
            "componentType" : 5126,
            "count" : 8,
            "type" : "VEC3"
        },
        {
            "bufferView" : 10,
            "componentType" : 5126,
            "count" : 8,
            "type" : "VEC2"
        },
        {
            "bufferView" : 11,
            "componentType" : 5123,
            "count" : 12,
            "type" : "SCALAR"
        },
        {
            "bufferView" : 12,
            "componentType" : 5126,
            "count" : 101,
            "max" : [
                4.166666666666667
            ],
            "min" : [
                0
            ],
            "type" : "SCALAR"
        },
        {
            "bufferView" : 13,
            "componentType" : 5126,
            "count" : 101,
            "type" : "VEC3"
        },
        {
            "bufferView" : 14,
            "componentType" : 5126,
            "count" : 101,
            "type" : "VEC4"
        },
        {
            "bufferView" : 15,
            "componentType" : 5126,
            "count" : 1,
            "max" : [
                2.0833333333333335
            ],
            "min" : [
                2.0833333333333335
            ],
            "type" : "SCALAR"
        },
        {
            "bufferView" : 16,
            "componentType" : 5126,
            "count" : 1,
            "type" : "VEC3"
        },
        {
            "bufferView" : 17,
            "componentType" : 5126,
            "count" : 101,
            "type" : "VEC3"
        },
        {
            "bufferView" : 18,
            "componentType" : 5126,
            "count" : 101,
            "type" : "VEC3"
        },
        {
            "bufferView" : 19,
            "componentType" : 5126,
            "count" : 101,
            "type" : "VEC4"
        },
        {
            "bufferView" : 20,
            "componentType" : 5126,
            "count" : 101,
            "type" : "VEC3"
        }
    ],
    "bufferViews" : [
        {
            "buffer" : 0,
            "byteLength" : 480,
            "byteOffset" : 0
        },
        {
            "buffer" : 0,
            "byteLength" : 480,
            "byteOffset" : 480
        },
        {
            "buffer" : 0,
            "byteLength" : 320,
            "byteOffset" : 960
        },
        {
            "buffer" : 0,
            "byteLength" : 120,
            "byteOffset" : 1280
        },
        {
            "buffer" : 0,
            "byteLength" : 1320,
            "byteOffset" : 1400
        },
        {
            "buffer" : 0,
            "byteLength" : 1320,
            "byteOffset" : 2720
        },
        {
            "buffer" : 0,
            "byteLength" : 880,
            "byteOffset" : 4040
        },
        {
            "buffer" : 0,
            "byteLength" : 336,
            "byteOffset" : 4920
        },
        {
            "buffer" : 0,
            "byteLength" : 96,
            "byteOffset" : 5256
        },
        {
            "buffer" : 0,
            "byteLength" : 96,
            "byteOffset" : 5352
        },
        {
            "buffer" : 0,
            "byteLength" : 64,
            "byteOffset" : 5448
        },
        {
            "buffer" : 0,
            "byteLength" : 24,
            "byteOffset" : 5512
        },
        {
            "buffer" : 0,
            "byteLength" : 404,
            "byteOffset" : 5536
        },
        {
            "buffer" : 0,
            "byteLength" : 1212,
            "byteOffset" : 5940
        },
        {
            "buffer" : 0,
            "byteLength" : 1616,
            "byteOffset" : 7152
        },
        {
            "buffer" : 0,
            "byteLength" : 4,
            "byteOffset" : 8768
        },
        {
            "buffer" : 0,
            "byteLength" : 12,
            "byteOffset" : 8772
        },
        {
            "buffer" : 0,
            "byteLength" : 1212,
            "byteOffset" : 8784
        },
        {
            "buffer" : 0,
            "byteLength" : 1212,
            "byteOffset" : 9996
        },
        {
            "buffer" : 0,
            "byteLength" : 1616,
            "byteOffset" : 11208
        },
        {
            "buffer" : 0,
            "byteLength" : 1212,
            "byteOffset" : 12824
        }
    ],
    "buffers" : [
        {
            "byteLength" : 14036,
            "uri" : "data:application/octet-stream;base64,"
        }
    ]
}
