{
    "asset" : {
        "generator" : "Khronos glTF Blender I/O v1.0.5",
        "version" : "2.0"
    },
    "scene" : 0,
    "scenes" : [
        {
            "name" : "Scene",
            "nodes" : [
                0,
                1,
                2,
                3,
                4,
                5,
                6,
                7,
                8
            ]
        }
    ],
    "nodes" : [
        {
            "name" : "Light",
            "rotation" : [
                0.16907575726509094,
                0.7558803558349609,
                -0.27217137813568115,
                0.570947527885437
            ],
            "translation" : [
                4.076245307922363,
                5.903861999511719,
                0.6296952962875366
            ]
        },
        {
            "name" : "Camera",
            "rotation" : [
                0.0013006310909986496,
                0.850077211856842,
                -0.5266522765159607,
                0.0020993677899241447
            ],
            "translation" : [
                -0.0634162425994873,
                4.958309173583984,
                -7.927525520324707
            ]
        },
        {
            "mesh" : 0,
            "name" : "worm_body",
            "rotation" : [
                0,
                -1,
                0,
                4.887620548288396e-07
            ],
            "scale" : [
                2.2676100730895996,
                0.5659325122833252,
                1
            ],
            "translation" : [
                -1.4893001317977905,
                -0.8655324578285217,
                1.6351492404937744
            ]
        },
        {
            "mesh" : 1,
            "name" : "worm_head",
            "scale" : [
                1,
                1.3414536714553833,
                1
            ],
            "translation" : [
                -0.24615034461021423,
                1.2243627309799194,
                1.6351492404937744
            ]
        },
        {
            "mesh" : 2,
            "name" : "eye_left",
            "scale" : [
                0.28313472867012024,
                0.6292220950126648,
                0.15141695737838745
            ],
            "translation" : [
                0.11612281203269958,
                1.5667245388031006,
                0.38455891609191895
            ]
        },
        {
            "mesh" : 3,
            "name" : "eye_right",
            "scale" : [
                0.28313472867012024,
                0.6292220950126648,
                0.15141695737838745
            ],
            "translation" : [
                -0.5697706937789917,
                1.5667245388031006,
                0.38455891609191895
            ]
        },
        {
            "name" : "Lamp",
            "rotation" : [
                1,
                0,
                0,
                -1.3435884227419592e-07
            ],
            "translation" : [
                0,
                0,
                13.213704109191895
            ]
        },
        {
            "name" : "Camera.001",
            "rotation" : [
                1,
                0,
                0,
                3.422854888412985e-08
            ],
            "translation" : [
                1.158446192741394,
                1.9730818271636963,
                14.818016052246094
            ]
        },
        {
            "mesh" : 4,
            "name" : "baseballbat",
            "rotation" : [
                0.7691424489021301,
                -0.5746315717697144,
                0.05352106690406799,
                0.2745072841644287
            ],
            "scale" : [
                0.22993941605091095,
                0.22993941605091095,
                0.22993941605091095
            ],
            "translation" : [
                0.354819118976593,
                -1.1542942523956299,
                0.8688040971755981
            ]
        }
    ],
    "animations" : [
        {
            "channels" : [
                {
                    "sampler" : 0,
                    "target" : {
                        "node" : 2,
                        "path" : "scale"
                    }
                }
            ],
            "name" : "walk_body",
            "samplers" : [
                {
                    "input" : 18,
                    "interpolation" : "LINEAR",
                    "output" : 19
                }
            ]
        },
        {
            "channels" : [
                {
                    "sampler" : 0,
                    "target" : {
                        "node" : 3,
                        "path" : "translation"
                    }
                },
                {
                    "sampler" : 1,
                    "target" : {
                        "node" : 3,
                        "path" : "rotation"
                    }
                }
            ],
            "name" : "walk_head",
            "samplers" : [
                {
                    "input" : 18,
                    "interpolation" : "LINEAR",
                    "output" : 20
                },
                {
                    "input" : 18,
                    "interpolation" : "LINEAR",
                    "output" : 21
                }
            ]
        },
        {
            "channels" : [
                {
                    "sampler" : 0,
                    "target" : {
                        "node" : 4,
                        "path" : "translation"
                    }
                }
            ],
            "name" : "walk_eyeleft",
            "samplers" : [
                {
                    "input" : 18,
                    "interpolation" : "LINEAR",
                    "output" : 22
                }
            ]
        },
        {
            "channels" : [
                {
                    "sampler" : 0,
                    "target" : {
                        "node" : 5,
                        "path" : "translation"
                    }
                }
            ],
            "name" : "walk_eyeright",
            "samplers" : [
                {
                    "input" : 18,
                    "interpolation" : "LINEAR",
                    "output" : 23
                }
            ]
        },
        {
            "channels" : [
                {
                    "sampler" : 0,
                    "target" : {
                        "node" : 8,
                        "path" : "translation"
                    }
                },
                {
                    "sampler" : 1,
                    "target" : {
                        "node" : 8,
                        "path" : "rotation"
                    }
                }
            ],
            "name" : "baseballbat",
            "samplers" : [
                {
                    "input" : 18,
                    "interpolation" : "LINEAR",
                    "output" : 24
                },
                {
                    "input" : 18,
                    "interpolation" : "LINEAR",
                    "output" : 25
                }
            ]
        }
    ],
    "materials" : [
        {
            "doubleSided" : true,
            "name" : "mat_worm_body",
            "pbrMetallicRoughness" : {
                "baseColorFactor" : [
                    0.6631237864494324,
                    0.8000000715255737,
                    0.48850300908088684,
                    1
                ],
                "metallicFactor" : 0,
                "roughnessFactor" : 0.4000000059604645
            }
        },
        {
            "doubleSided" : true,
            "name" : "mat_worm_eyes",
            "pbrMetallicRoughness" : {
                "baseColorFactor" : [
                    0.8000000715255737,
                    0.02005593478679657,
                    0.4391130208969116,
                    1
                ],
                "metallicFactor" : 0,
                "roughnessFactor" : 0.5
            }
        },
        {
            "doubleSided" : true,
            "name" : "Material.001",
            "pbrMetallicRoughness" : {
                "baseColorFactor" : [
                    1,
                    1,
                    1,
                    1
                ],
                "metallicFactor" : 1,
                "roughnessFactor" : 1
            }
        }
    ],
    "meshes" : [
        {
            "name" : "Cube.001",
            "primitives" : [
                {
                    "attributes" : {
                        "POSITION" : 0,
                        "NORMAL" : 1,
                        "TEXCOORD_0" : 2
                    },
                    "indices" : 3,
                    "material" : 0
                }
            ]
        },
        {
            "name" : "Cube",
            "primitives" : [
                {
                    "attributes" : {
                        "POSITION" : 4,
                        "NORMAL" : 5,
                        "TEXCOORD_0" : 6
                    },
                    "indices" : 7,
                    "material" : 0
                }
            ]
        },
        {
            "name" : "Cube.004",
            "primitives" : [
                {
                    "attributes" : {
                        "POSITION" : 8,
                        "NORMAL" : 9,
                        "TEXCOORD_0" : 10
                    },
                    "indices" : 11,
                    "material" : 1
                }
            ]
        },
        {
            "name" : "Cube.005",
            "primitives" : [
                {
                    "attributes" : {
                        "POSITION" : 12,
                        "NORMAL" : 13,
                        "TEXCOORD_0" : 14
                    },
                    "indices" : 11,
                    "material" : 1
                }
            ]
        },
        {
            "name" : "Sphere",
            "primitives" : [
                {
                    "attributes" : {
                        "POSITION" : 15,
                        "NORMAL" : 16
                    },
                    "indices" : 17,
                    "material" : 2
                }
            ]
        }
    ],
    "accessors" : [
        {
            "bufferView" : 0,
            "componentType" : 5126,
            "count" : 110,
            "max" : [
                1,
                1.1894469261169434,
                1
            ],
            "min" : [
                -1,
                -1,
                -1
            ],
            "type" : "VEC3"
        },
        {
            "bufferView" : 1,
            "componentType" : 5126,
            "count" : 110,
            "type" : "VEC3"
        },
        {
            "bufferView" : 2,
            "componentType" : 5126,
            "count" : 110,
            "type" : "VEC2"
        },
        {
            "bufferView" : 3,
            "componentType" : 5123,
            "count" : 168,
            "type" : "SCALAR"
        },
        {
            "bufferView" : 4,
            "componentType" : 5126,
            "count" : 40,
            "max" : [
                1,
                1.2398110628128052,
                1
            ],
            "min" : [
                -1,
                -1,
                -1
            ],
            "type" : "VEC3"
        },
        {
            "bufferView" : 5,
            "componentType" : 5126,
            "count" : 40,
            "type" : "VEC3"
        },
        {
            "bufferView" : 6,
            "componentType" : 5126,
            "count" : 40,
            "type" : "VEC2"
        },
        {
            "bufferView" : 7,
            "componentType" : 5123,
            "count" : 60,
            "type" : "SCALAR"
        },
        {
            "bufferView" : 8,
            "componentType" : 5126,
            "count" : 24,
            "max" : [
                1,
                1,
                1
            ],
            "min" : [
                -1,
                -1,
                -1
            ],
            "type" : "VEC3"
        },
        {
            "bufferView" : 9,
            "componentType" : 5126,
            "count" : 24,
            "type" : "VEC3"
        },
        {
            "bufferView" : 10,
            "componentType" : 5126,
            "count" : 24,
            "type" : "VEC2"
        },
        {
            "bufferView" : 11,
            "componentType" : 5123,
            "count" : 36,
            "type" : "SCALAR"
        },
        {
            "bufferView" : 12,
            "componentType" : 5126,
            "count" : 24,
            "max" : [
                1,
                1,
                1
            ],
            "min" : [
                -1,
                -1,
                -1
            ],
            "type" : "VEC3"
        },
        {
            "bufferView" : 13,
            "componentType" : 5126,
            "count" : 24,
            "type" : "VEC3"
        },
        {
            "bufferView" : 14,
            "componentType" : 5126,
            "count" : 24,
            "type" : "VEC2"
        },
        {
            "bufferView" : 15,
            "componentType" : 5126,
            "count" : 608,
            "max" : [
                0.9442934393882751,
                0.9442936182022095,
                -6.062679767608643
            ],
            "min" : [
                -0.9442938566207886,
                -0.944294273853302,
                -25.52284812927246
            ],
            "type" : "VEC3"
        },
        {
            "bufferView" : 16,
            "componentType" : 5126,
            "count" : 608,
            "type" : "VEC3"
        },
        {
            "bufferView" : 17,
            "componentType" : 5123,
            "count" : 3444,
            "type" : "SCALAR"
        },
        {
            "bufferView" : 18,
            "componentType" : 5126,
            "count" : 101,
            "max" : [
                4.166666666666667
            ],
            "min" : [
                0
            ],
            "type" : "SCALAR"
        },
        {
            "bufferView" : 19,
            "componentType" : 5126,
            "count" : 101,
            "type" : "VEC3"
        },
        {
            "bufferView" : 20,
            "componentType" : 5126,
            "count" : 101,
            "type" : "VEC3"
        },
        {
            "bufferView" : 21,
            "componentType" : 5126,
            "count" : 101,
            "type" : "VEC4"
        },
        {
            "bufferView" : 22,
            "componentType" : 5126,
            "count" : 101,
            "type" : "VEC3"
        },
        {
            "bufferView" : 23,
            "componentType" : 5126,
            "count" : 101,
            "type" : "VEC3"
        },
        {
            "bufferView" : 24,
            "componentType" : 5126,
            "count" : 101,
            "type" : "VEC3"
        },
        {
            "bufferView" : 25,
            "componentType" : 5126,
            "count" : 101,
            "type" : "VEC4"
        }
    ],
    "bufferViews" : [
        {
            "buffer" : 0,
            "byteLength" : 1320,
            "byteOffset" : 0
        },
        {
            "buffer" : 0,
            "byteLength" : 1320,
            "byteOffset" : 1320
        },
        {
            "buffer" : 0,
            "byteLength" : 880,
            "byteOffset" : 2640
        },
        {
            "buffer" : 0,
            "byteLength" : 336,
            "byteOffset" : 3520
        },
        {
            "buffer" : 0,
            "byteLength" : 480,
            "byteOffset" : 3856
        },
        {
            "buffer" : 0,
            "byteLength" : 480,
            "byteOffset" : 4336
        },
        {
            "buffer" : 0,
            "byteLength" : 320,
            "byteOffset" : 4816
        },
        {
            "buffer" : 0,
            "byteLength" : 120,
            "byteOffset" : 5136
        },
        {
            "buffer" : 0,
            "byteLength" : 288,
            "byteOffset" : 5256
        },
        {
            "buffer" : 0,
            "byteLength" : 288,
            "byteOffset" : 5544
        },
        {
            "buffer" : 0,
            "byteLength" : 192,
            "byteOffset" : 5832
        },
        {
            "buffer" : 0,
            "byteLength" : 72,
            "byteOffset" : 6024
        },
        {
            "buffer" : 0,
            "byteLength" : 288,
            "byteOffset" : 6096
        },
        {
            "buffer" : 0,
            "byteLength" : 288,
            "byteOffset" : 6384
        },
        {
            "buffer" : 0,
            "byteLength" : 192,
            "byteOffset" : 6672
        },
        {
            "buffer" : 0,
            "byteLength" : 7296,
            "byteOffset" : 6864
        },
        {
            "buffer" : 0,
            "byteLength" : 7296,
            "byteOffset" : 14160
        },
        {
            "buffer" : 0,
            "byteLength" : 6888,
            "byteOffset" : 21456
        },
        {
            "buffer" : 0,
            "byteLength" : 404,
            "byteOffset" : 28344
        },
        {
            "buffer" : 0,
            "byteLength" : 1212,
            "byteOffset" : 28748
        },
        {
            "buffer" : 0,
            "byteLength" : 1212,
            "byteOffset" : 29960
        },
        {
            "buffer" : 0,
            "byteLength" : 1616,
            "byteOffset" : 31172
        },
        {
            "buffer" : 0,
            "byteLength" : 1212,
            "byteOffset" : 32788
        },
        {
            "buffer" : 0,
            "byteLength" : 1212,
            "byteOffset" : 34000
        },
        {
            "buffer" : 0,
            "byteLength" : 1212,
            "byteOffset" : 35212
        },
        {
            "buffer" : 0,
            "byteLength" : 1616,
            "byteOffset" : 36424
        }
    ],
    "buffers" : [
        {
            "byteLength" : 38040,
            "uri" : "data:application/octet-stream;base64,"
        }
    ]
}
